<svg width="70" height="70" viewBox="0 0 70 70" fill="none" xmlns="http://www.w3.org/2000/svg">
<path fill-rule="evenodd" clip-rule="evenodd" d="M24.5007 22.166H45.5007C45.8101 22.166 46.1068 22.2889 46.3256 22.5077C46.5444 22.7265 46.6673 23.0233 46.6673 23.3327V51.3327C46.6673 51.6421 46.5444 51.9389 46.3256 52.1576C46.1068 52.3764 45.8101 52.4994 45.5007 52.4994H24.5007C24.1912 52.4994 23.8945 52.3764 23.6757 52.1576C23.4569 51.9389 23.334 51.6421 23.334 51.3327V23.3327C23.334 23.0233 23.4569 22.7265 23.6757 22.5077C23.8945 22.2889 24.1912 22.166 24.5007 22.166ZM25.6673 50.166H44.334V43.166H25.6673V50.166ZM25.6673 40.8327H44.334V33.8327H25.6673V40.8327ZM25.6673 31.4993H44.334V24.4993H25.6673V31.4993ZM30.3338 26.8327H28.0005V29.166H30.3338V26.8327ZM33.8339 26.8327H36.1672V29.166H33.8339V26.8327ZM42.0006 26.8327H39.6673V29.166H42.0006V26.8327ZM28.0005 36.166H30.3338V38.4993H28.0005V36.166ZM36.1672 36.166H33.8339V38.4993H36.1672V36.166ZM39.6673 36.166H42.0006V38.4993H39.6673V36.166ZM30.3338 45.4993H28.0005V47.8327H30.3338V45.4993ZM33.8339 45.4993H36.1672V47.8327H33.8339V45.4993ZM42.0006 45.4993H39.6673V47.8327H42.0006V45.4993Z" fill="#4825C2"/>
<path fill-rule="evenodd" clip-rule="evenodd" d="M24.6519 4.86211C25.1117 5.53323 25.4256 6.29335 25.5733 7.09336C27.0098 7.35331 28.2966 8.14241 29.1796 9.30485C30.0627 10.4673 30.4778 11.9186 30.343 13.3721C30.2082 14.8257 29.5332 16.1759 28.4515 17.1561C27.3697 18.1364 25.9598 18.6753 24.5 18.6667H6.99997C5.21555 18.6603 3.50091 17.9728 2.2065 16.7445C0.912088 15.5162 0.135632 13.8399 0.0358246 12.0583C-0.0639831 10.2766 0.520393 8.52412 1.66952 7.15894C2.81864 5.79376 4.44575 4.91897 6.21831 4.71336C6.69745 3.33967 7.5911 2.14854 8.77596 1.30431C9.96081 0.460074 11.3785 0.00435511 12.8333 2.74306e-05C13.8666 -0.00288543 14.8873 0.226225 15.8202 0.670457C16.753 1.11469 17.5743 1.7627 18.2233 2.56669C19.0042 2.33857 19.8243 2.27682 20.6305 2.38542C21.4367 2.49402 22.2112 2.77056 22.9039 3.19718C23.5966 3.62379 24.1921 4.19098 24.6519 4.86211ZM6.99997 16.3334H24.5C25.4282 16.3334 26.3185 15.9646 26.9748 15.3082C27.6312 14.6519 28 13.7616 28 12.8334C28 11.9051 27.6312 11.0149 26.9748 10.3585C26.3185 9.70211 25.4282 9.33336 24.5 9.33336C24.1906 9.33336 23.8938 9.21044 23.675 8.99165C23.4562 8.77286 23.3333 8.47611 23.3333 8.16669C23.3379 7.57331 23.1904 6.98864 22.9049 6.46845C22.6194 5.94826 22.2053 5.5099 21.7022 5.19519C21.1992 4.88048 20.6239 4.6999 20.0312 4.6707C19.4385 4.6415 18.8482 4.76463 18.3166 5.02836C18.0565 5.16008 17.7559 5.18754 17.4762 5.10515C17.1965 5.02276 16.9588 4.83673 16.8116 4.58503C16.3268 3.78093 15.6102 3.14223 14.7558 2.75279C13.9015 2.36335 12.9493 2.24139 12.0244 2.40291C11.0994 2.56442 10.2449 3.00188 9.57313 3.65782C8.90131 4.31377 8.44355 5.15754 8.25997 6.07836C8.20319 6.34691 8.05434 6.58717 7.83918 6.7576C7.62401 6.92802 7.35605 7.0179 7.08164 7.01169C7.01878 7.01041 6.95622 7.00259 6.89497 6.98836C5.67164 7.02574 4.51179 7.54151 3.66463 8.42483C2.81747 9.30815 2.35061 10.4885 2.36436 11.7124C2.37811 12.9362 2.87138 14.1058 3.73817 14.9698C4.60496 15.8339 5.77611 16.3235 6.99997 16.3334ZM50.1666 3.88406e-05H66.4999C67.4274 0.00280861 68.316 0.372447 68.9718 1.02822C69.6275 1.684 69.9972 2.57263 69.9999 3.50004V12.8334C69.9972 13.7608 69.6275 14.6494 68.9718 15.3052C68.316 15.961 67.4274 16.3306 66.4999 16.3334H61.8333V18.6667H64.1666V21H52.4999V18.6667H54.8333V16.3334H50.1666C49.2392 16.3306 48.3506 15.961 47.6948 15.3052C47.039 14.6494 46.6694 13.7608 46.6666 12.8334V3.50004C46.6694 2.57263 47.039 1.684 47.6948 1.02822C48.3506 0.372447 49.2392 0.00280861 50.1666 3.88406e-05ZM57.1666 18.6667H59.5V16.3334H57.1666V18.6667ZM67.3249 13.6583C67.5437 13.4395 67.6666 13.1428 67.6666 12.8334V11.6667H48.9999V12.8334C48.9999 13.1428 49.1229 13.4395 49.3417 13.6583C49.5604 13.8771 49.8572 14 50.1666 14H66.4999C66.8094 14 67.1061 13.8771 67.3249 13.6583ZM48.9999 9.33337H67.6666V3.50004C67.6666 3.19062 67.5437 2.89387 67.3249 2.67508C67.1061 2.45629 66.8094 2.33337 66.4999 2.33337H50.1666C49.8572 2.33337 49.5604 2.45629 49.3417 2.67508C49.1229 2.89387 48.9999 3.19062 48.9999 3.50004V9.33337ZM68.8333 54.8334V63C69.1427 63 69.4394 63.1229 69.6582 63.3417C69.877 63.5605 69.9999 63.8573 69.9999 64.1667V66.5C69.9972 67.4274 69.6275 68.3161 68.9718 68.9718C68.316 69.6276 67.4274 69.9973 66.4999 70H50.1666C49.2392 69.9973 48.3506 69.6276 47.6948 68.9718C47.039 68.3161 46.6694 67.4274 46.6666 66.5V64.1667C46.6666 63.8573 46.7895 63.5605 47.0083 63.3417C47.2271 63.1229 47.5239 63 47.8333 63V54.8334C47.8361 53.906 48.2057 53.0173 48.8615 52.3616C49.5172 51.7058 50.4059 51.3361 51.3333 51.3334H65.3333C66.2607 51.3361 67.1493 51.7058 67.8051 52.3616C68.4609 53.0173 68.8305 53.906 68.8333 54.8334ZM50.5083 54.0084C50.2895 54.2272 50.1666 54.5239 50.1666 54.8334V63H66.4999V54.8334C66.4999 54.5239 66.377 54.2272 66.1582 54.0084C65.9394 53.7896 65.6427 53.6667 65.3333 53.6667H51.3333C51.0239 53.6667 50.7271 53.7896 50.5083 54.0084ZM67.3249 67.325C67.5437 67.1062 67.6666 66.8095 67.6666 66.5V65.3334H48.9999V66.5C48.9999 66.8095 49.1229 67.1062 49.3417 67.325C49.5604 67.5438 49.8572 67.6667 50.1666 67.6667H66.4999C66.8094 67.6667 67.1061 67.5438 67.3249 67.325ZM17.5 53.6667H16.3333V52.5C16.3306 51.5726 15.9609 50.684 15.3051 50.0282C14.6494 49.3724 13.7607 49.0028 12.8333 49H3.5C2.57259 49.0028 1.68396 49.3724 1.02819 50.0282C0.372408 50.684 0.00276977 51.5726 0 52.5V66.5C0.00276977 67.4274 0.372408 68.3161 1.02819 68.9719C1.68396 69.6276 2.57259 69.9973 3.5 70H17.5C18.4274 69.9973 19.316 69.6276 19.9718 68.9719C20.6276 68.3161 20.9972 67.4274 21 66.5V57.1667C20.9972 56.2393 20.6276 55.3507 19.9718 54.6949C19.316 54.0391 18.4274 53.6695 17.5 53.6667ZM9.54333 67.6667H3.5C3.19058 67.6667 2.89383 67.5438 2.67504 67.325C2.45625 67.1062 2.33333 66.8095 2.33333 66.5V52.5C2.33333 52.1906 2.45625 51.8939 2.67504 51.6751C2.89383 51.4563 3.19058 51.3334 3.5 51.3334H12.8333C13.1428 51.3334 13.4395 51.4563 13.6583 51.6751C13.8771 51.8939 14 52.1906 14 52.5V53.6667H12.8333C11.9059 53.6695 11.0173 54.0391 10.3615 54.6949C9.70574 55.3507 9.3361 56.2393 9.33333 57.1667V66.5C9.33649 66.898 9.40751 67.2926 9.54333 67.6667ZM18.6667 66.5C18.6667 66.8095 18.5438 67.1062 18.325 67.325C18.1062 67.5438 17.8094 67.6667 17.5 67.6667H12.8333C12.5239 67.6667 12.2272 67.5438 12.0084 67.325C11.7896 67.1062 11.6667 66.8095 11.6667 66.5V57.1667C11.6667 56.8573 11.7896 56.5605 12.0084 56.3417C12.2272 56.123 12.5239 56 12.8333 56H17.5C17.8094 56 18.1062 56.123 18.325 56.3417C18.5438 56.5605 18.6667 56.8573 18.6667 57.1667V66.5ZM59.5 31.5V23.3334H57.1667V30.3334H49V32.6667H58.3333C58.6428 32.6667 58.9395 32.5438 59.1583 32.325C59.3771 32.1062 59.5 31.8095 59.5 31.5ZM57.1667 39.6667H49V37.3334H58.3333C58.6428 37.3334 58.9395 37.4563 59.1583 37.6751C59.3771 37.8939 59.5 38.1906 59.5 38.5V49H57.1667V39.6667ZM12.8333 21H10.5V31.5C10.5 31.8095 10.6229 32.1062 10.8417 32.325C11.0605 32.5438 11.3572 32.6667 11.6667 32.6667H21V30.3334H12.8333V21ZM10.5 46.6667V38.5C10.5 38.1906 10.6229 37.8939 10.8417 37.6751C11.0605 37.4563 11.3572 37.3334 11.6667 37.3334H21V39.6667H12.8333V46.6667H10.5Z" fill="#222222" fill-opacity="0.2"/>
</svg>
