<svg width="70" height="71" viewBox="0 0 70 71" fill="none" xmlns="http://www.w3.org/2000/svg">
<path d="M60.305 35.6329C60.5359 34.1976 60.6569 32.7467 60.6667 31.2929V10.5029C60.6681 10.2549 60.5894 10.013 60.4422 9.81329C60.2951 9.61359 60.0874 9.46674 59.85 9.39461L30.6833 0.061279C30.4572 -0.0204263 30.2095 -0.0204263 29.9834 0.061279L0.816686 9.39461C0.579339 9.46674 0.37163 9.61359 0.224478 9.81329C0.0773266 10.013 -0.00139955 10.2549 1.88348e-05 10.5029V31.2929C-0.00457497 35.5497 0.924979 39.7555 2.7231 43.6138C4.52122 47.4721 7.1441 50.8889 10.4067 53.6229L29.5867 69.7346C29.7968 69.9082 30.0608 70.0031 30.3333 70.0031C30.6059 70.0031 30.8699 69.9082 31.08 69.7346L39.6667 62.5246V59.4679L30.3333 67.3079L11.9 51.8263C8.8999 49.3124 6.4882 46.1705 4.83518 42.6226C3.18216 39.0746 2.32812 35.2071 2.33335 31.2929V11.3546L30.3333 2.39461L58.3333 11.3546V31.2929C58.3232 32.5504 58.2258 33.8057 58.0417 35.0496L60.305 35.6329Z" fill="#222222" fill-opacity="0.2"/>
<path d="M28.0001 38.0199L42.0246 23.9954L43.6742 25.6451L28.8249 40.4944C28.6061 40.7132 28.3094 40.836 28.0001 40.836C27.6907 40.836 27.394 40.7132 27.1752 40.4944L18.9257 32.2449L20.5754 30.5953L28.0001 38.0199Z" fill="#222222" fill-opacity="0.2"/>
<path fill-rule="evenodd" clip-rule="evenodd" d="M55.1162 51.3704L59.7829 52.5371C60.0352 52.6003 60.2591 52.746 60.4191 52.951C60.5791 53.1561 60.666 53.4087 60.666 53.6688V57.5689C60.6682 58.3352 60.5184 59.0942 60.2252 59.8021C59.932 60.51 59.5013 61.1528 58.958 61.6931L55.6575 64.9936C55.4388 65.2123 55.1421 65.3352 54.8327 65.3352C54.5233 65.3352 54.2267 65.2123 54.0079 64.9936L50.7074 61.6931C50.1641 61.1528 49.7334 60.51 49.4402 59.8021C49.1471 59.0942 48.9972 58.3352 48.9994 57.5689V53.6688C48.9994 53.4087 49.0863 53.1561 49.2463 52.951C49.4063 52.746 49.6303 52.6003 49.8825 52.5371L54.5492 51.3704C54.7353 51.3238 54.9301 51.3238 55.1162 51.3704ZM57.3084 60.0434C57.9622 59.3856 58.3303 58.4965 58.3327 57.5689V54.5799L54.8327 53.7049L51.3327 54.5799V57.5689C51.3351 58.4965 51.7032 59.3856 52.357 60.0434L54.8327 62.5191L57.3084 60.0434Z" fill="#4825C2"/>
<path fill-rule="evenodd" clip-rule="evenodd" d="M65.3327 46.6688H66.4993C67.4268 46.6715 68.3154 47.0412 68.9712 47.697C69.6269 48.3527 69.9966 49.2414 69.9993 50.1688V66.5021C69.9966 67.4295 69.6269 68.3181 68.9712 68.9739C68.3154 69.6297 67.4268 69.9993 66.4993 70.0021H43.166C42.2386 69.9993 41.35 69.6297 40.6942 68.9739C40.0384 68.3181 39.6688 67.4295 39.666 66.5021V50.1688C39.6688 49.2414 40.0384 48.3527 40.6942 47.697C41.35 47.0412 42.2386 46.6715 43.166 46.6688H44.3327V43.1688C44.3352 41.0036 45.1964 38.9278 46.7274 37.3968C48.2584 35.8658 50.3342 35.0046 52.4994 35.0021H57.166C57.4584 35.0002 57.7505 35.0158 58.041 35.0488L60.3043 35.6321C61.7923 36.2525 63.0636 37.299 63.9583 38.64C64.853 39.981 65.3312 41.5567 65.3327 43.1688V46.6688ZM62.9993 43.1688V46.6688H60.666V43.1688C60.6632 42.2414 60.2936 41.3527 59.6378 40.697C58.9821 40.0412 58.0934 39.6716 57.166 39.6688H52.4993C51.5719 39.6716 50.6833 40.0412 50.0275 40.697C49.3718 41.3527 49.0021 42.2414 48.9993 43.1688V46.6688H46.666V43.1688C46.666 41.6217 47.2806 40.138 48.3746 39.044C48.9717 38.4745 50.6327 37.3354 52.4993 37.3354H57.166C59.0327 37.3354 60.6937 38.4745 61.2908 39.044C62.3848 40.138 62.9993 41.6217 62.9993 43.1688ZM58.3327 43.1688V46.6688H51.3327V43.1688C51.3327 42.8594 51.4556 42.5626 51.6744 42.3438C51.8932 42.125 52.1899 42.0021 52.4993 42.0021H57.166C57.4754 42.0021 57.7722 42.125 57.991 42.3438C58.2098 42.5626 58.3327 42.8594 58.3327 43.1688ZM67.3243 67.3271C67.5431 67.1083 67.666 66.8115 67.666 66.5021V50.1688C67.666 49.8594 67.5431 49.5626 67.3243 49.3438C67.1055 49.125 66.8088 49.0021 66.4993 49.0021H43.166C42.8566 49.0021 42.5598 49.125 42.3411 49.3438C42.1223 49.5626 41.9993 49.8594 41.9993 50.1688V66.5021C41.9993 66.8115 42.1223 67.1083 42.3411 67.3271C42.5598 67.5459 42.8566 67.6688 43.166 67.6688H66.4993C66.8088 67.6688 67.1055 67.5459 67.3243 67.3271Z" fill="#4825C2"/>
</svg>
