<svg width="70" height="70" viewBox="0 0 70 70" fill="none" xmlns="http://www.w3.org/2000/svg">
<path d="M7 4.66667H4.66667V7H7V4.66667Z" fill="#222222" fill-opacity="0.2"/>
<path d="M11.6667 4.66667H9.33333V7H11.6667V4.66667Z" fill="#222222" fill-opacity="0.2"/>
<path d="M16.3333 4.66667H14V7H16.3333V4.66667Z" fill="#222222" fill-opacity="0.2"/>
<path d="M30.3333 4.66667H28V7H30.3333V4.66667Z" fill="#222222" fill-opacity="0.2"/>
<path fill-rule="evenodd" clip-rule="evenodd" d="M17.5 35H3.5C2.57174 35 1.6815 34.6312 1.02513 33.9749C0.368749 33.3185 0 32.4283 0 31.5V3.5C0 2.57174 0.368749 1.6815 1.02513 1.02513C1.6815 0.368749 2.57174 0 3.5 0H31.5C32.4283 0 33.3185 0.368749 33.9749 1.02513C34.6312 1.6815 35 2.57174 35 3.5V17.5H32.6667V11.6667H2.33333V31.5C2.33333 31.8094 2.45625 32.1062 2.67504 32.325C2.89383 32.5438 3.19058 32.6667 3.5 32.6667H17.5V35ZM2.33333 3.5C2.33333 3.19058 2.45625 2.89383 2.67504 2.67504C2.89383 2.45625 3.19058 2.33333 3.5 2.33333H31.5C31.8094 2.33333 32.1062 2.45625 32.325 2.67504C32.5438 2.89383 32.6667 3.19058 32.6667 3.5V9.33333H2.33333V3.5Z" fill="#222222" fill-opacity="0.2"/>
<path d="M39.6667 39.6667H42V42H39.6667V39.6667Z" fill="#222222" fill-opacity="0.2"/>
<path d="M46.6667 42V39.6667H44.3333V42H46.6667Z" fill="#222222" fill-opacity="0.2"/>
<path d="M51.3333 42V39.6667H49V42H51.3333Z" fill="#222222" fill-opacity="0.2"/>
<path d="M65.3333 39.6667H63V42H65.3333V39.6667Z" fill="#222222" fill-opacity="0.2"/>
<path fill-rule="evenodd" clip-rule="evenodd" d="M66.5 35C67.4283 35 68.3185 35.3688 68.9749 36.0251C69.6312 36.6815 70 37.5717 70 38.5V66.5C70 67.4283 69.6312 68.3185 68.9749 68.9749C68.3185 69.6312 67.4283 70 66.5 70H38.5C37.5717 70 36.6815 69.6312 36.0251 68.9749C35.3688 68.3185 35 67.4283 35 66.5V38.5C35 37.5717 35.3688 36.6815 36.0251 36.0251C36.6815 35.3688 37.5717 35 38.5 35H66.5ZM67.325 67.325C67.5438 67.1062 67.6667 66.8094 67.6667 66.5V46.6667H37.3333V66.5C37.3333 66.8094 37.4562 67.1062 37.675 67.325C37.8938 67.5438 38.1906 67.6667 38.5 67.6667H66.5C66.8094 67.6667 67.1062 67.5438 67.325 67.325ZM37.3333 38.5V44.3333H67.6667V38.5C67.6667 38.1906 67.5438 37.8938 67.325 37.675C67.1062 37.4562 66.8094 37.3333 66.5 37.3333H38.5C38.1906 37.3333 37.8938 37.4562 37.675 37.675C37.4562 37.8938 37.3333 38.1906 37.3333 38.5Z" fill="#222222" fill-opacity="0.2"/>
<path d="M22.1667 22.1667H24.5V24.5H22.1667V22.1667Z" fill="#4825C2"/>
<path d="M29.1667 22.1667H26.8333V24.5H29.1667V22.1667Z" fill="#4825C2"/>
<path d="M33.8333 22.1667V24.5H31.5V22.1667H33.8333Z" fill="#4825C2"/>
<path d="M47.8333 22.1667H45.5V24.5H47.8333V22.1667Z" fill="#4825C2"/>
<path fill-rule="evenodd" clip-rule="evenodd" d="M52.5 35V21C52.5 20.0717 52.1312 19.1815 51.4749 18.5251C50.8185 17.8687 49.9283 17.5 49 17.5H21C20.0717 17.5 19.1815 17.8687 18.5251 18.5251C17.8687 19.1815 17.5 20.0717 17.5 21V49C17.5 49.9283 17.8687 50.8185 18.5251 51.4749C19.1815 52.1312 20.0717 52.5 21 52.5H35V50.1667H21C20.6906 50.1667 20.3938 50.0438 20.175 49.825C19.9562 49.6062 19.8333 49.3094 19.8333 49V29.1667H50.1667V35H52.5ZM49 19.8333C49.3094 19.8333 49.6062 19.9562 49.825 20.175C50.0438 20.3938 50.1667 20.6906 50.1667 21V26.8333H19.8333V21C19.8333 20.6906 19.9562 20.3938 20.175 20.175C20.3938 19.9562 20.6906 19.8333 21 19.8333H49Z" fill="#4825C2"/>
</svg>
