<svg width="70" height="70" viewBox="0 0 70 70" fill="none" xmlns="http://www.w3.org/2000/svg">
<path d="M9.33333 7H7V9.33333H9.33333V7Z" fill="#222222" fill-opacity="0.2"/>
<path d="M11.6667 7H37.3333V9.33333H11.6667V7Z" fill="#222222" fill-opacity="0.2"/>
<path d="M37.3333 14H7V16.3333H37.3333V14Z" fill="#222222" fill-opacity="0.2"/>
<path d="M7 21H37.3333V23.3333H7V21Z" fill="#222222" fill-opacity="0.2"/>
<path d="M37.3333 28H7V30.3333H37.3333V28Z" fill="#222222" fill-opacity="0.2"/>
<path fill-rule="evenodd" clip-rule="evenodd" d="M60.6667 18.6667H68.8333C69.1428 18.6667 69.4395 18.7896 69.6583 19.0084C69.8771 19.2272 70 19.5239 70 19.8333V45.5C70 47.0471 69.3854 48.5308 68.2915 49.6248C67.1975 50.7188 65.7138 51.3333 64.1667 51.3333H51.3333V65.3333C51.3372 66.2417 51.0747 67.1313 50.5784 67.8921C50.0821 68.6529 49.3737 69.2515 48.5407 69.614C47.7078 69.9765 46.7869 70.0869 45.8919 69.9315C44.9969 69.7762 44.1671 69.3619 43.505 68.74C43.1774 69.1309 42.7689 69.446 42.3076 69.6635C41.8463 69.881 41.3433 69.9958 40.8333 70H3.5C2.57259 69.9972 1.68396 69.6276 1.02819 68.9718C0.372408 68.316 0.00276977 67.4274 0 66.5V3.5C0.00276977 2.57259 0.372408 1.68396 1.02819 1.02819C1.68396 0.372408 2.57259 0.00276977 3.5 0H40.8333C41.7607 0.00276977 42.6494 0.372408 43.3051 1.02819C43.9609 1.68396 44.3306 2.57259 44.3333 3.5V7H54.8333C56.3804 7 57.8642 7.61458 58.9581 8.70854C60.0521 9.80251 60.6667 11.2862 60.6667 12.8333V18.6667ZM41.6583 67.325C41.8771 67.1062 42 66.8094 42 66.5V3.5C42 3.19058 41.8771 2.89383 41.6583 2.67504C41.4395 2.45625 41.1427 2.33333 40.8333 2.33333H3.5C3.19058 2.33333 2.89383 2.45625 2.67504 2.67504C2.45625 2.89383 2.33333 3.19058 2.33333 3.5V66.5C2.33333 66.8094 2.45625 67.1062 2.67504 67.325C2.89383 67.5438 3.19058 67.6667 3.5 67.6667H40.8333C41.1427 67.6667 41.4395 67.5438 41.6583 67.325ZM48.3166 66.9832C48.7542 66.5457 49 65.9522 49 65.3333V9.33333H44.3333V65.3333C44.3333 65.9522 44.5792 66.5457 45.0167 66.9832C45.4543 67.4208 46.0478 67.6667 46.6667 67.6667C47.2855 67.6667 47.879 67.4208 48.3166 66.9832ZM51.3333 9.33333V49H59.535C58.7594 47.9978 58.3369 46.7673 58.3333 45.5V12.8333C58.3306 11.9059 57.9609 11.0173 57.3051 10.3615C56.6494 9.70574 55.7607 9.3361 54.8333 9.33333H51.3333ZM66.6415 47.9749C67.2979 47.3185 67.6667 46.4283 67.6667 45.5V21H60.6667V45.5C60.6667 46.4283 61.0354 47.3185 61.6918 47.9749C62.3482 48.6312 63.2384 49 64.1667 49C65.0949 49 65.9852 48.6312 66.6415 47.9749Z" fill="#222222" fill-opacity="0.2"/>
<path d="M33.1403 39.7671L22.6403 35.1005C22.4912 35.0342 22.3298 35 22.1667 35C22.0035 35 21.8421 35.0342 21.693 35.1005L11.193 39.7671C10.9867 39.8588 10.8114 40.0083 10.6884 40.1976C10.5654 40.3869 10.5 40.6077 10.5 40.8335V48.3095C10.5005 49.7921 10.8148 51.2578 11.4223 52.6102C12.0298 53.9627 12.9166 55.1713 14.0245 56.1565L21.3908 62.7061C21.6045 62.8964 21.8806 63.0015 22.1667 63.0015C22.4527 63.0015 22.7288 62.8964 22.9425 62.7061L30.3088 56.1565C31.4167 55.1713 32.3036 53.9627 32.911 52.6102C33.5185 51.2578 33.8328 49.7921 33.8333 48.3095V40.8335C33.8334 40.6077 33.7679 40.3869 33.6449 40.1976C33.5219 40.0083 33.3466 39.8588 33.1403 39.7671ZM22.1667 60.2725L16.7778 55.4821C17.0805 54.9358 17.5229 54.4798 18.0598 54.1608C18.5967 53.8418 19.2088 53.6713 19.8333 53.6668H24.5C25.1245 53.6713 25.7366 53.8418 26.2735 54.1608C26.8104 54.4798 27.2529 54.9358 27.5555 55.4821L22.1667 60.2725ZM24.5 45.5001H23.5795C22.8889 45.5022 22.2132 45.2992 21.6382 44.9168L19.9127 43.7665C20.058 43.2224 20.3953 42.7492 20.8622 42.4343C21.3291 42.1194 21.8942 41.984 22.4532 42.053C23.0121 42.1221 23.5272 42.391 23.9034 42.8102C24.2796 43.2293 24.4915 43.7703 24.5 44.3335V45.5001ZM20.3432 46.8535C21.3013 47.493 22.4275 47.8341 23.5795 47.8335H24.5V49.0001C24.5 49.619 24.2542 50.2125 23.8166 50.6501C23.379 51.0876 22.7855 51.3335 22.1667 51.3335C21.5478 51.3335 20.9543 51.0876 20.5168 50.6501C20.0792 50.2125 19.8333 49.619 19.8333 49.0001V46.5128L20.3432 46.8535ZM31.5 48.3095C31.4978 50.3735 30.7142 52.3601 29.3067 53.8698C28.5339 52.7381 27.3832 51.9188 26.061 51.5586C26.5644 50.8003 26.833 49.9104 26.8333 49.0001V44.3335C26.8333 43.0958 26.3417 41.9088 25.4665 41.0336C24.5913 40.1585 23.4043 39.6668 22.1667 39.6668C20.929 39.6668 19.742 40.1585 18.8668 41.0336C17.9917 41.9088 17.5 43.0958 17.5 44.3335V49.0001C17.5003 49.9104 17.769 50.8003 18.2723 51.5586C16.9501 51.9188 15.7995 52.7381 15.0267 53.8698C13.6192 52.3601 12.8355 50.3735 12.8333 48.3095V41.5918L22.1667 37.4431L31.5 41.5918V48.3095Z" fill="#4825C2"/>
</svg>
