 <svg xmlns="http://www.w3.org/2000/svg" xmlns:xlink="http://www.w3.org/1999/xlink" width="248.998" height="248.996" viewBox="0 0 248.998 248.996">
    <defs>
        <filter id="Контур_1" x="0.084" y="0" width="248.914" height="177.537" filterUnits="userSpaceOnUse">
            <feOffset dy="15" input="SourceAlpha"/>
            <feGaussianBlur stdDeviation="10" result="blur"/>
            <feFlood flood-color="#d7ccac"/>
            <feComposite operator="in" in2="blur"/>
            <feComposite in="SourceGraphic"/>
        </filter>
        <filter id="Контур_3" x="0" y="71.461" width="248.915" height="177.535" filterUnits="userSpaceOnUse">
            <feOffset dy="15" input="SourceAlpha"/>
            <feGaussianBlur stdDeviation="10" result="blur-2"/>
            <feFlood flood-color="#3b565d"/>
            <feComposite operator="in" in2="blur-2"/>
            <feComposite in="SourceGraphic"/>
        </filter>
    </defs>
    <g id="Слой_x0020_1" transform="translate(-11397.887 -15507.336)">
        <g transform="matrix(1, 0, 0, 1, 11397.89, 15507.34)" filter="url(#Контур_1)">
            <path id="Контур_1-2" data-name="Контур 1" d="M11477.4,15533.447l35.67,8.7a2.752,2.752,0,0,0,2.155-.334l31.376-19.067a2.854,2.854,0,0,1,3.915.956l19.068,31.375a2.747,2.747,0,0,0,1.759,1.289l35.67,8.7a2.857,2.857,0,0,1,2.094,3.444l-8.7,35.669a2.755,2.755,0,0,0,.333,2.155l19.068,31.377a2.845,2.845,0,0,1,.334,2.143l0,.013-26.924-6.57.006-.028a2.836,2.836,0,0,0-.337-2.126l-13.106-21.566a2.753,2.753,0,0,1-.333-2.156l5.982-24.518a2.856,2.856,0,0,0-2.094-3.443l-24.517-5.982a2.75,2.75,0,0,1-1.76-1.287l-13.106-21.566a2.853,2.853,0,0,0-3.915-.955l-21.565,13.105a2.75,2.75,0,0,1-2.156.333l-24.518-5.981a2.854,2.854,0,0,0-3.443,2.092l-5.982,24.518a2.748,2.748,0,0,1-1.288,1.76l-21.566,13.106a2.841,2.841,0,0,0-1.257,1.65c-.011.036-.021.073-.029.109l-26.924-6.569c.011-.042.021-.084.033-.126a2.838,2.838,0,0,1,1.253-1.634l31.376-19.068a2.755,2.755,0,0,0,1.289-1.76l8.7-35.67A2.854,2.854,0,0,1,11477.4,15533.447Z" transform="translate(-11401.21 -15507.34)" fill="#d7ccac" fill-rule="evenodd"/>
        </g>
        <path id="Контур_2" data-name="Контур 2" d="M13187.238,16230.186c-8.04,6.557,2.506,7.024,3.068,13.428.4,4.58-2.488,2.238-.148,7.928,2.928,7.113,2.406,4.049,4.392,6.791-1.546,5.608-2.5,6.432-5.077,7.545-14.614,6.3-18.58,4.055-22.286,15.28-4.051,12.267-7.427,25.226-11.7,37.64l4.113,2.85a118.113,118.113,0,0,0-3.851,27.27h14.326c.145-.836.281-1.727.41-2.68,1-7.418-1.6-21.08,7.32-27.969,1.445,13.068-2.093,6.883-5.242,14.406-3.333,7.961,3.578,10.159,4.311,13.469a6.4,6.4,0,0,1-.341,2.773h2.563v15.209l10.543,2.039h24.609l21.029-4.107c-1.861-12.924-8.937-9.713,5.357-23.973,4.023-4.013,9.085-10.7,9.856-16.623.893-6.859-.423-4.016,4.183-8.129.463-5.229-9.051-26.518-11.449-32.629-2.838-7.229-3.767-7.979-10.521-11.377-10.026-5.041-7.314-1.061-14.759-7.083,1.007-3.278,2.39-5.493,2.99-9.526.606-4.086-.394-7.714-.55-11.562l3.619-1.54c-9.512-9.577-1.4-6.66-.625-12.554C13220.7,16208.611,13193.684,16221.59,13187.238,16230.186Zm48.5,92.078c-1.5-2.441-1.517-2.367-.329-4.934l2.15,1.193Z" transform="translate(-1685.078 -678.222)" fill="#3b565d" fill-rule="evenodd"/>
        <g transform="matrix(1, 0, 0, 1, 11397.89, 15507.34)" filter="url(#Контур_3)">
            <path id="Контур_3-2" data-name="Контур 3" d="M11616.8,18471.492a2.835,2.835,0,0,1-1.286,1.758l-31.376,19.068a2.758,2.758,0,0,0-1.289,1.76l-8.7,35.67a2.853,2.853,0,0,1-3.444,2.092l-35.669-8.7a2.759,2.759,0,0,0-2.155.334l-31.377,19.068a2.855,2.855,0,0,1-3.915-.955l-19.067-31.377a2.762,2.762,0,0,0-1.76-1.289l-35.67-8.7a2.853,2.853,0,0,1-2.092-3.443l8.7-35.67a2.749,2.749,0,0,0-.334-2.154l-19.068-31.377a2.841,2.841,0,0,1-.33-2.154l26.924,6.568a2.846,2.846,0,0,0,.331,2.156l13.106,21.566a2.753,2.753,0,0,1,.333,2.154l-5.982,24.518a2.856,2.856,0,0,0,2.093,3.443l24.518,5.982a2.758,2.758,0,0,1,1.76,1.289l13.106,21.566a2.856,2.856,0,0,0,3.914.955l21.566-13.107a2.752,2.752,0,0,1,2.155-.332l24.518,5.982a2.855,2.855,0,0,0,3.444-2.094l5.981-24.518a2.758,2.758,0,0,1,1.289-1.76l21.566-13.105a2.844,2.844,0,0,0,1.286-1.76Z" transform="translate(-11397.89 -18338.95)" fill="#3b565d" fill-rule="evenodd"/>
        </g>
        <path id="Контур_4" data-name="Контур 4" d="M15772.65,20767.172a19.31,19.31,0,1,1-19.31-19.311A19.314,19.314,0,0,1,15772.65,20767.172Z" transform="translate(-4200.145 -5096.895)" fill="#fefefe"/>
        <path id="Контур_5" data-name="Контур 5" d="M16141.8,21271.285l-8.14,8.141-3.849-3.848a2.142,2.142,0,0,0-3.03,3.029l5.363,5.363a2.128,2.128,0,0,0,3.031,0l9.654-9.654a2.143,2.143,0,1,0-3.03-3.031Z" transform="translate(-4582.609 -5606.816)" fill="#3b565d"/>
    </g>
</svg>