<svg width="400" height="400" viewBox="0 0 400 400" fill="none" xmlns="http://www.w3.org/2000/svg">
<path fill-rule="evenodd" clip-rule="evenodd"  d="M326.871 0L150.355 178.71L127.129 272.703L220.032 249.213L323.2 144.8V298.606H150.781V346.774L27.6258 242.665V74.2774H126.155V49.3548H3V256.387L175.413 400V323.529H347.832V119.858L396.6 70.5419L326.871 0ZM160.981 238.426L168.161 209.439L189.652 231.187L160.981 238.426ZM213.729 220.316L178.89 185.058L292.097 70.5419L326.89 105.748L213.729 220.316ZM344.355 88.129L309.516 52.8839L326.897 35.2516L361.774 70.5484L344.355 88.129ZM173 89.2387H37.6581V116.632H173V89.2323V89.2387ZM118.865 144.019H37.6581V171.413H118.865V144.013V144.019ZM37.6581 226.187H91.7936V198.8H37.6581V226.194V226.187ZM227.135 34.4516H200.039V61.8452H227.135V34.4516ZM173 34.4516H145.903V61.8452H173V34.4516Z" fill="#6569A2"/>
</svg>
