<svg width="400" height="400" viewBox="0 0 400 400" fill="none" xmlns="http://www.w3.org/2000/svg">
<g clip-path="url(#clip0)">
<rect width="400" height="400" fill="white"/>
<path fill-rule="evenodd" clip-rule="evenodd" d="M162.225 399.463H143.775C143.775 399.463 103.232 400.631 103.232 357.133V149.602C103.232 149.602 96.2205 104.446 148.209 104.446H357.804C357.804 104.446 400.595 103.899 400.595 150.964V349.995C400.595 349.995 405.327 400.15 359.084 400.15C312.841 400.15 162.225 399.463 162.225 399.463ZM186.099 338.298C186.099 338.298 173.03 313.903 167.385 305.932C161.74 297.961 147.699 291.485 154.566 280.944C158.783 274.555 164.55 269.335 171.329 265.778C171.329 265.778 179.076 258.789 185.81 265.959C192.545 273.128 204.162 293.934 204.162 293.934C204.162 293.934 207.207 303.061 212.861 293.284C218.515 283.507 249.21 246.787 277.735 218.01C306.26 189.234 347.469 159.637 347.469 159.637C347.469 159.637 358.402 149.794 357.58 156.282C356.758 162.769 360.567 163.969 353.544 169.33C346.521 174.691 318.182 200.389 289.71 237.393C261.237 274.397 239.323 311.753 231.939 323.386C224.554 335.02 219.98 342.748 212.3 344.259C204.62 345.77 189.166 346.5 186.099 338.3V338.298Z" fill="#0082C9"/>
<path fill-rule="evenodd" clip-rule="evenodd" d="M91.6353 285.543C91.6353 285.543 50.7468 287.319 50.7468 242.049V89.6295C50.7468 89.6295 49.7442 52.0465 91.8231 52.0465H247.972C247.972 52.0465 286.388 56.1669 286.388 90.6573H145.284C145.284 90.6573 91.15 88.5971 91.15 144.143C91.15 199.689 91.6353 285.543 91.6353 285.543Z" fill="#71B164"/>
<path fill-rule="evenodd" clip-rule="evenodd" d="M38.2528 223.658C38.2528 223.658 -0.00782121 225 -0.00782121 190.525V36.6222C-0.00782121 36.6222 -3.24008 0.00972402 36.252 0.00972402H188.077C188.077 0.00972402 223.998 -1.69797 223.998 40.1475H85.6264C85.6264 40.1475 38.5893 37.9705 38.5893 90.2612C38.5893 142.552 38.2528 223.658 38.2528 223.658Z" fill="#4FC0EF"/>
</g>
<defs>
<clipPath id="clip0">
<rect width="400" height="400" fill="white"/>
</clipPath>
</defs>
</svg>
