<svg xmlns="http://www.w3.org/2000/svg" viewBox="0 0 400 400" xml:space="preserve"><path  d="M87 56.8c-2.4 0-4.3 1.9-4.3 4.3v13c0 2.4 1.9 4.3 4.3 4.3h226c2.4 0 4.3-1.9 4.3-4.3v-13c0-2.4-1.9-4.3-4.3-4.3H87zM313 109.7c2.4 0 4.3 1.9 4.3 4.3v13c0 2.4-1.9 4.3-4.3 4.3H87c-2.4 0-4.3-1.9-4.3-4.3v-13c0-2.4 1.9-4.3 4.3-4.3h226zM317.3 167c0-2.4-1.9-4.3-4.3-4.3H87c-2.4 0-4.3 1.9-4.3 4.3v13c0 .9.3 1.8.8 2.4.5.7 1.1 1.2 1.9 1.5l.9.3c.3 0 .5.1.8.1H313c2.4 0 4.3-1.9 4.3-4.3v-13zM188.6 215.7c2.4 0 4.3 1.9 4.3 4.3v13c0 2.4-1.9 4.3-4.3 4.3H87c-2.4 0-4.3-1.9-4.3-4.3v-13c0-2.4 1.9-4.3 4.3-4.3h101.6zM269.7 228.6c6 0 11.8.8 17.3 2.4 2.6.7 3.7 3.8 2.2 6.2l-5 7.8c-1 1.6-3 2.3-4.9 1.9-3.1-.7-6.4-1-9.7-1-25.7 0-46.5 20.8-46.5 46.5s20.8 46.5 46.5 46.5 46.5-20.8 46.5-46.5c0-.4.1-.8.2-1.2 0-.1.1-.1.1-.2s.1-.2.1-.2c.1-.1.1-.2.2-.2l.2-.2 9-9.1c2.3-2.4 6.3-1.3 6.8 2 .4 3 .6 6 .6 9.1 0 35.2-28.6 63.8-63.8 63.8-35.2 0-63.8-28.6-63.8-63.8s28.8-63.8 64-63.8z"  fill-rule="evenodd" clip-rule="evenodd" fill="#199af5"/><path  d="M324.2 257c3.9-4.5 3.5-11.3-1-15.3-4.5-3.9-11.3-3.5-15.3 1l-40.7 46.5-12.2-15.1c-3.8-4.6-10.6-5.4-15.2-1.6-4.6 3.8-5.4 10.6-1.6 15.2l20.4 25.2c3.8 4.6 10.6 5.4 15.2 1.6.8-.6 1.4-1.3 2-2.1l48.4-55.4z"  fill-rule="evenodd" clip-rule="evenodd" fill="#199af5" /><path d="M65.4 4.9c-20.3 0-36.8 16.5-36.8 36.8v316.7c0 20.3 16.5 36.8 36.8 36.8h269.2c20.3 0 36.8-16.5 36.8-36.8V41.6c0-20.3-16.5-36.8-36.8-36.8H65.4zm6.5 21.6c-11.9 0-21.6 9.7-21.6 21.6v303.8c0 11.9 9.7 21.6 21.6 21.6h256.2c11.9 0 21.6-9.7 21.6-21.6V48.1c0-11.9-9.7-21.6-21.6-21.6H71.9z" fill-rule="evenodd" clip-rule="evenodd" fill="#199af5"/></svg>
